<svg width="952" height="396" viewBox="0 0 952 396" fill="none" xmlns="http://www.w3.org/2000/svg">
  <g opacity="0.35">
    <!-- Заміна кружечків на зірки -->
    <polygon points="417 157 420 163.5 427 164.3 422 169 423.5 176 417 172.3 410.5 176 412 169 407 164.3 414 163.5 417 157" fill="white"/>
    <polygon opacity="0.5" points="515 112 517 116 523 117 519 121 520 126 515 122.3 510 126 511 121 507 117 513 116 515 112" fill="white"/>
    <polygon opacity="0.5" points="423 275 426 281 433 282 428 287 429.5 293 423 290 416.5 293 418 287 413 282 420 281 423 275" fill="white"/>
    <polygon opacity="0.3" points="366 390 369 396 376 397 371 402 372.5 408 366 404 359.5 408 361 402 356 397 363 396 366 390" fill="white"/>
    <polygon points="265 323 268 329 275 330 270 335 271.5 341 265 338 258.5 341 260 335 255 330 262 329 265 323" fill="white"/>
    <polygon opacity="0.2" points="362 205 365 211 372 212 367 217 368.5 223 362 220 355.5 223 357 217 352 212 359 211 362 205" fill="white"/>
    <polygon opacity="0.3" points="548 207 551 213 558 214 553 219 554.5 225 548 222 541.5 225 543 219 538 214 545 213 548 207" fill="white"/>
    <polygon opacity="0.2" points="607 277 610 283 617 284 612 289 613.5 295 607 292 600.5 295 602 289 597 284 604 283 607 277" fill="white"/>
    <polygon opacity="0.21" points="789 277 792 283 799 284 794 289 795.5 295 789 292 782.5 295 784 289 779 284 786 283 789 277" fill="white"/>
    <polygon points="362 61 365 67 372 68 367 73 368.5 79 362 76 355.5 79 357 73 352 68 359 67 362 61" fill="white"/>
    <polygon opacity="0.3" points="192 128 195 134 202 135 197 140 198.5 146 192 143 185.5 146 187 140 182 135 189 134 192 128" fill="white"/>
    <polygon points="743 0 746 6.5 753 7.3 748 12 749.5 18 743 14.3 736.5 18 738 12 733 7.3 740 6.5 743 0" fill="white"/>
  </g>
  <path d="M834 150C827.373 150 822 144.627 822 138C822 131.373 827.373 126 834 126C840.627 126 846 131.373 846 138C846 144.627 840.627 150 834 150Z" fill="url(#paint0_linear_701_17365)"/>
  <path d="M4 206C1.79086 206 4.76837e-07 204.209 4.76837e-07 202C4.76837e-07 199.791 1.79086 198 4 198C6.20914 198 8 199.791 8 202C8 204.209 6.20914 206 4 206Z" fill="url(#paint1_linear_701_17365)"/>
  <path d="M948 206C945.791 206 944 204.209 944 202C944 199.791 945.791 198 948 198C950.209 198 952 199.791 952 202C952 204.209 950.209 206 948 206Z" fill="url(#paint2_linear_701_17365)"/>
  <path d="M154 326C149.582 326 146 322.418 146 318C146 313.582 149.582 310 154 310C158.418 310 162 313.582 162 318C162 322.418 158.418 326 154 326Z" fill="url(#paint3_linear_701_17365)"/>

</svg>
